{"asset":{"version":"2.0","generator":"Blockbench 5.0.2 glTF exporter"},"scenes":[{"nodes":[1,3,5,7,9],"name":"blockbench_export"}],"scene":0,"nodes":[{"rotation":[0,0,-1,6.123233995736766e-17],"translation":[0.625,0.25,0.5],"name":"cube","mesh":0},{"rotation":[-6.123233995736766e-17,-1,6.123233995736766e-17,3.749399456654644e-33],"translation":[0.25,0,0.25],"name":"cover","children":[0]},{"translation":[-0.125,0,-0.625],"name":"cube","mesh":1},{"rotation":[0,-1,0,6.123233995736766e-17],"translation":[0.25,0.1875,-0.3125],"name":"cover1","children":[2]},{"translation":[-0.125,0,-0.625],"name":"cube","mesh":2},{"rotation":[0,-1,0,6.123233995736766e-17],"translation":[0.25,0,-0.3125],"name":"cover2","children":[4]},{"name":"cube","mesh":3},{"rotation":[0,-1,0,6.123233995736766e-17],"translation":[0.3125,0.125,-0.25],"name":"page1","children":[6]},{"name":"cube","mesh":4},{"rotation":[0,-1,0,6.123233995736766e-17],"translation":[0.3125,0.0625,-0.25],"name":"page2","children":[8]}],"bufferViews":[{"buffer":0,"byteOffset":0,"byteLength":288,"target":34962,"byteStride":12},{"buffer":0,"byteOffset":288,"byteLength":288,"target":34962,"byteStride":12},{"buffer":0,"byteOffset":576,"byteLength":192,"target":34962,"byteStride":8},{"buffer":0,"byteOffset":768,"byteLength":72,"target":34963},{"buffer":0,"byteOffset":840,"byteLength":288,"target":34962,"byteStride":12},{"buffer":0,"byteOffset":1128,"byteLength":288,"target":34962,"byteStride":12},{"buffer":0,"byteOffset":1416,"byteLength":192,"target":34962,"byteStride":8},{"buffer":0,"byteOffset":1608,"byteLength":72,"target":34963},{"buffer":0,"byteOffset":1680,"byteLength":288,"target":34962,"byteStride":12},{"buffer":0,"byteOffset":1968,"byteLength":288,"target":34962,"byteStride":12},{"buffer":0,"byteOffset":2256,"byteLength":192,"target":34962,"byteStride":8},{"buffer":0,"byteOffset":2448,"byteLength":72,"target":34963},{"buffer":0,"byteOffset":2520,"byteLength":288,"target":34962,"byteStride":12},{"buffer":0,"byteOffset":2808,"byteLength":288,"target":34962,"byteStride":12},{"buffer":0,"byteOffset":3096,"byteLength":192,"target":34962,"byteStride":8},{"buffer":0,"byteOffset":3288,"byteLength":72,"target":34963},{"buffer":0,"byteOffset":3360,"byteLength":288,"target":34962,"byteStride":12},{"buffer":0,"byteOffset":3648,"byteLength":288,"target":34962,"byteStride":12},{"buffer":0,"byteOffset":3936,"byteLength":192,"target":34962,"byteStride":8},{"buffer":0,"byteOffset":4128,"byteLength":72,"target":34963},{"buffer":0,"byteOffset":4200,"byteLength":8},{"buffer":0,"byteOffset":4208,"byteLength":24},{"buffer":0,"byteOffset":4232,"byteLength":16},{"buffer":0,"byteOffset":4248,"byteLength":64},{"buffer":0,"byteOffset":4312,"byteLength":8},{"buffer":0,"byteOffset":4320,"byteLength":24},{"buffer":0,"byteOffset":4344,"byteLength":16},{"buffer":0,"byteOffset":4360,"byteLength":64},{"buffer":0,"byteOffset":4424,"byteLength":4},{"buffer":0,"byteOffset":4428,"byteLength":12},{"buffer":0,"byteOffset":4440,"byteLength":12},{"buffer":0,"byteOffset":4452,"byteLength":36},{"buffer":0,"byteOffset":4488,"byteLength":16},{"buffer":0,"byteOffset":4504,"byteLength":64},{"buffer":0,"byteOffset":4568,"byteLength":12},{"buffer":0,"byteOffset":4580,"byteLength":36},{"buffer":0,"byteOffset":4616,"byteLength":16},{"buffer":0,"byteOffset":4632,"byteLength":64}],"buffers":[{"byteLength":4696,"uri":"data:application/octet-stream;base64,"}],"accessors":[{"bufferView":0,"componentType":5126,"count":24,"max":[0.75,0.25,0.0625],"min":[0,0,0],"type":"VEC3"},{"bufferView":1,"componentType":5126,"count":24,"max":[1,1,1],"min":[-1,-1,-1],"type":"VEC3"},{"bufferView":2,"componentType":5126,"count":24,"max":[0.968505859375,0.390380859375],"min":[0.562744140625,0.312744140625],"type":"VEC2"},{"bufferView":3,"componentType":5123,"count":36,"max":[23],"min":[0],"type":"SCALAR"},{"bufferView":4,"componentType":5126,"count":24,"max":[0.75,0.0625,0.5625],"min":[0,0,0],"type":"VEC3"},{"bufferView":5,"componentType":5126,"count":24,"max":[1,1,1],"min":[-1,-1,-1],"type":"VEC3"},{"bufferView":6,"componentType":5126,"count":24,"max":[0.656005859375,0.312255859375],"min":[0.000244140625,0.156494140625],"type":"VEC2"},{"bufferView":7,"componentType":5123,"count":36,"max":[23],"min":[0],"type":"SCALAR"},{"bufferView":8,"componentType":5126,"count":24,"max":[0.75,0.0625,0.5625],"min":[0,0,0],"type":"VEC3"},{"bufferView":9,"componentType":5126,"count":24,"max":[1,1,1],"min":[-1,-1,-1],"type":"VEC3"},{"bufferView":10,"componentType":5126,"count":24,"max":[0.656005859375,0.156005859375],"min":[0.000244140625,0.000244140625],"type":"VEC2"},{"bufferView":11,"componentType":5123,"count":36,"max":[23],"min":[0],"type":"SCALAR"},{"bufferView":12,"componentType":5126,"count":24,"max":[0.625,0.0625,0],"min":[0,0,-0.5],"type":"VEC3"},{"bufferView":13,"componentType":5126,"count":24,"max":[1,1,1],"min":[-1,-1,-1],"type":"VEC3"},{"bufferView":14,"componentType":5126,"count":24,"max":[0.562255859375,0.593505859375],"min":[0.000244140625,0.453369140625],"type":"VEC2"},{"bufferView":15,"componentType":5123,"count":36,"max":[23],"min":[0],"type":"SCALAR"},{"bufferView":16,"componentType":5126,"count":24,"max":[0.625,0.0625,0],"min":[0,0,-0.5],"type":"VEC3"},{"bufferView":17,"componentType":5126,"count":24,"max":[1,1,1],"min":[-1,-1,-1],"type":"VEC3"},{"bufferView":18,"componentType":5126,"count":24,"max":[0.562255859375,0.452880859375],"min":[0.000244140625,0.312744140625],"type":"VEC2"},{"bufferView":19,"componentType":5123,"count":36,"max":[23],"min":[0],"type":"SCALAR"},{"bufferView":20,"componentType":5126,"count":2,"max":[0.4166699945926666],"min":[0],"type":"SCALAR"},{"bufferView":21,"componentType":5126,"count":2,"max":[1,1,1],"min":[1,0.30000001192092896,1],"type":"VEC3"},{"bufferView":22,"componentType":5126,"count":4,"max":[0.666670024394989],"min":[0],"type":"SCALAR"},{"bufferView":23,"componentType":5126,"count":4,"max":[6.123234262925839e-17,-6.123234262925839e-17,1,6.123234262925839e-17],"min":[0,-1,0,3.7493993930529855e-33],"type":"VEC4"},{"bufferView":24,"componentType":5126,"count":2,"max":[0.666670024394989],"min":[0],"type":"SCALAR"},{"bufferView":25,"componentType":5126,"count":2,"max":[0.25,0.1875,-0.25],"min":[0.25,0.0625,-0.3125],"type":"VEC3"},{"bufferView":26,"componentType":5126,"count":4,"max":[0.666670024394989],"min":[0],"type":"SCALAR"},{"bufferView":27,"componentType":5126,"count":4,"max":[6.123234262925839e-17,-6.123234262925839e-17,1,6.123234262925839e-17],"min":[0,-1,0,3.7493993930529855e-33],"type":"VEC4"},{"bufferView":28,"componentType":5126,"count":1,"max":[0],"min":[0],"type":"SCALAR"},{"bufferView":29,"componentType":5126,"count":1,"max":[0.3125,0.125,-0.25],"min":[0.3125,0.125,-0.25],"type":"VEC3"},{"bufferView":30,"componentType":5126,"count":3,"max":[0.666670024394989],"min":[0],"type":"SCALAR"},{"bufferView":31,"componentType":5126,"count":3,"max":[1,1,1],"min":[1,0.30000001192092896,1],"type":"VEC3"},{"bufferView":32,"componentType":5126,"count":4,"max":[0.666670024394989],"min":[0],"type":"SCALAR"},{"bufferView":33,"componentType":5126,"count":4,"max":[6.123234262925839e-17,-6.123234262925839e-17,1,6.123234262925839e-17],"min":[0,-1,0,3.7493993930529855e-33],"type":"VEC4"},{"bufferView":34,"componentType":5126,"count":3,"max":[0.666670024394989],"min":[0],"type":"SCALAR"},{"bufferView":35,"componentType":5126,"count":3,"max":[0.25,0.1875,-0.25],"min":[0.25,0.0625,-0.3125],"type":"VEC3"},{"bufferView":36,"componentType":5126,"count":4,"max":[0.666670024394989],"min":[0],"type":"SCALAR"},{"bufferView":37,"componentType":5126,"count":4,"max":[6.123234262925839e-17,-6.123234262925839e-17,1,6.123234262925839e-17],"min":[0,-1,0,3.7493993930529855e-33],"type":"VEC4"}],"materials":[{"pbrMetallicRoughness":{"metallicFactor":0,"roughnessFactor":1,"baseColorTexture":{"index":0}},"alphaMode":"MASK","alphaCutoff":0.05,"doubleSided":true}],"textures":[{"sampler":0,"source":0,"name":"bookEntity_texture.png"}],"samplers":[{"magFilter":9728,"minFilter":9728,"wrapS":33071,"wrapT":33071}],"images":[{"mimeType":"image/png","uri":"data:image/png;base64,"}],"meshes":[{"primitives":[{"mode":4,"attributes":{"POSITION":0,"NORMAL":1,"TEXCOORD_0":2},"indices":3,"material":0}]},{"primitives":[{"mode":4,"attributes":{"POSITION":4,"NORMAL":5,"TEXCOORD_0":6},"indices":7,"material":0}]},{"primitives":[{"mode":4,"attributes":{"POSITION":8,"NORMAL":9,"TEXCOORD_0":10},"indices":11,"material":0}]},{"primitives":[{"mode":4,"attributes":{"POSITION":12,"NORMAL":13,"TEXCOORD_0":14},"indices":15,"material":0}]},{"primitives":[{"mode":4,"attributes":{"POSITION":16,"NORMAL":17,"TEXCOORD_0":18},"indices":19,"material":0}]}],"animations":[{"name":"book_open","samplers":[{"input":20,"output":21,"interpolation":"LINEAR"},{"input":22,"output":23,"interpolation":"LINEAR"},{"input":24,"output":25,"interpolation":"LINEAR"},{"input":26,"output":27,"interpolation":"LINEAR"},{"input":28,"output":29,"interpolation":"LINEAR"}],"channels":[{"sampler":0,"target":{"node":1,"path":"scale"}},{"sampler":1,"target":{"node":3,"path":"rotation"}},{"sampler":2,"target":{"node":3,"path":"translation"}},{"sampler":3,"target":{"node":7,"path":"rotation"}},{"sampler":4,"target":{"node":7,"path":"translation"}}]},{"name":"book_close","samplers":[{"input":30,"output":31,"interpolation":"LINEAR"},{"input":32,"output":33,"interpolation":"LINEAR"},{"input":34,"output":35,"interpolation":"LINEAR"},{"input":36,"output":37,"interpolation":"LINEAR"}],"channels":[{"sampler":0,"target":{"node":1,"path":"scale"}},{"sampler":1,"target":{"node":3,"path":"rotation"}},{"sampler":2,"target":{"node":3,"path":"translation"}},{"sampler":3,"target":{"node":7,"path":"rotation"}}]}]}